<mxfile host="app.diagrams.net" modified="2022-04-17T07:09:35.423Z" agent="5.0 (Windows NT 10.0; Win64; x64) AppleWebKit/537.36 (KHTML, like Gecko) Chrome/100.0.4896.127 Safari/537.36" etag="Y1LyEGwT97CdWqHd0zr1" version="15.2.1" type="github">
  <diagram id="R2lEEEUBdFMjLlhIrx00" name="Page-1">
    <mxGraphModel dx="1221" dy="644" grid="1" gridSize="10" guides="1" tooltips="1" connect="1" arrows="1" fold="1" page="1" pageScale="1" pageWidth="850" pageHeight="1100" math="0" shadow="0" extFonts="Permanent Marker^https://fonts.googleapis.com/css?family=Permanent+Marker">
      <root>
        <mxCell id="0" />
        <mxCell id="1" parent="0" />
        <mxCell id="o2rqFxTXaJ7XOT23nWny-1" value="&lt;font style=&quot;font-size: 18px&quot;&gt;회원&lt;/font&gt;" style="rounded=1;whiteSpace=wrap;html=1;" vertex="1" parent="1">
          <mxGeometry x="490" y="215" width="120" height="60" as="geometry" />
        </mxCell>
        <mxCell id="o2rqFxTXaJ7XOT23nWny-2" value="&lt;font style=&quot;font-size: 18px&quot;&gt;&lt;u&gt;회원 아이디&lt;/u&gt;&lt;/font&gt;" style="ellipse;whiteSpace=wrap;html=1;" vertex="1" parent="1">
          <mxGeometry x="300" y="105" width="120" height="80" as="geometry" />
        </mxCell>
        <mxCell id="o2rqFxTXaJ7XOT23nWny-3" value="" style="endArrow=none;html=1;entryX=0;entryY=0.5;entryDx=0;entryDy=0;exitX=1;exitY=0.5;exitDx=0;exitDy=0;" edge="1" parent="1" source="o2rqFxTXaJ7XOT23nWny-2" target="o2rqFxTXaJ7XOT23nWny-1">
          <mxGeometry width="50" height="50" relative="1" as="geometry">
            <mxPoint x="300" y="200" as="sourcePoint" />
            <mxPoint x="450" y="250" as="targetPoint" />
          </mxGeometry>
        </mxCell>
        <mxCell id="o2rqFxTXaJ7XOT23nWny-4" value="&lt;font style=&quot;font-size: 18px&quot;&gt;닉네임&lt;/font&gt;" style="ellipse;whiteSpace=wrap;html=1;" vertex="1" parent="1">
          <mxGeometry x="300" y="205" width="120" height="80" as="geometry" />
        </mxCell>
        <mxCell id="o2rqFxTXaJ7XOT23nWny-5" value="&lt;font style=&quot;font-size: 18px&quot;&gt;폰번호&lt;/font&gt;" style="ellipse;whiteSpace=wrap;html=1;" vertex="1" parent="1">
          <mxGeometry x="300" y="305" width="120" height="80" as="geometry" />
        </mxCell>
        <mxCell id="o2rqFxTXaJ7XOT23nWny-6" value="" style="endArrow=none;html=1;exitX=1;exitY=0.5;exitDx=0;exitDy=0;entryX=0;entryY=0.5;entryDx=0;entryDy=0;" edge="1" parent="1" source="o2rqFxTXaJ7XOT23nWny-4" target="o2rqFxTXaJ7XOT23nWny-1">
          <mxGeometry width="50" height="50" relative="1" as="geometry">
            <mxPoint x="540" y="300" as="sourcePoint" />
            <mxPoint x="560" y="310" as="targetPoint" />
          </mxGeometry>
        </mxCell>
        <mxCell id="o2rqFxTXaJ7XOT23nWny-7" value="" style="endArrow=none;html=1;exitX=1;exitY=0.5;exitDx=0;exitDy=0;entryX=0;entryY=0.5;entryDx=0;entryDy=0;" edge="1" parent="1" source="o2rqFxTXaJ7XOT23nWny-5" target="o2rqFxTXaJ7XOT23nWny-1">
          <mxGeometry width="50" height="50" relative="1" as="geometry">
            <mxPoint x="540" y="300" as="sourcePoint" />
            <mxPoint x="590" y="250" as="targetPoint" />
          </mxGeometry>
        </mxCell>
        <mxCell id="o2rqFxTXaJ7XOT23nWny-10" value="&lt;font style=&quot;font-size: 18px&quot;&gt;카드&lt;/font&gt;" style="rounded=1;whiteSpace=wrap;html=1;" vertex="1" parent="1">
          <mxGeometry x="970" y="215" width="120" height="60" as="geometry" />
        </mxCell>
        <mxCell id="o2rqFxTXaJ7XOT23nWny-11" value="&lt;font style=&quot;font-size: 18px&quot;&gt;&lt;u&gt;카드 아이디&lt;/u&gt;&lt;/font&gt;" style="ellipse;whiteSpace=wrap;html=1;" vertex="1" parent="1">
          <mxGeometry x="1190" y="10" width="120" height="80" as="geometry" />
        </mxCell>
        <mxCell id="o2rqFxTXaJ7XOT23nWny-12" value="" style="endArrow=none;html=1;exitX=0;exitY=0.5;exitDx=0;exitDy=0;entryX=1;entryY=0.5;entryDx=0;entryDy=0;" edge="1" parent="1" source="o2rqFxTXaJ7XOT23nWny-11" target="o2rqFxTXaJ7XOT23nWny-10">
          <mxGeometry width="50" height="50" relative="1" as="geometry">
            <mxPoint x="1305" y="300" as="sourcePoint" />
            <mxPoint x="1355" y="250" as="targetPoint" />
          </mxGeometry>
        </mxCell>
        <mxCell id="o2rqFxTXaJ7XOT23nWny-13" value="&lt;font style=&quot;font-size: 18px&quot;&gt;제목&lt;/font&gt;" style="ellipse;whiteSpace=wrap;html=1;" vertex="1" parent="1">
          <mxGeometry x="1190" y="105" width="120" height="80" as="geometry" />
        </mxCell>
        <mxCell id="o2rqFxTXaJ7XOT23nWny-14" value="&lt;font style=&quot;font-size: 18px&quot;&gt;내용&lt;/font&gt;" style="ellipse;whiteSpace=wrap;html=1;" vertex="1" parent="1">
          <mxGeometry x="1190" y="195" width="120" height="80" as="geometry" />
        </mxCell>
        <mxCell id="o2rqFxTXaJ7XOT23nWny-15" value="" style="endArrow=none;html=1;exitX=0;exitY=0.5;exitDx=0;exitDy=0;entryX=1;entryY=0.5;entryDx=0;entryDy=0;" edge="1" parent="1" source="o2rqFxTXaJ7XOT23nWny-13" target="o2rqFxTXaJ7XOT23nWny-10">
          <mxGeometry width="50" height="50" relative="1" as="geometry">
            <mxPoint x="1305" y="300" as="sourcePoint" />
            <mxPoint x="1325" y="310" as="targetPoint" />
          </mxGeometry>
        </mxCell>
        <mxCell id="o2rqFxTXaJ7XOT23nWny-16" value="" style="endArrow=none;html=1;exitX=0;exitY=0.5;exitDx=0;exitDy=0;" edge="1" parent="1" source="o2rqFxTXaJ7XOT23nWny-14">
          <mxGeometry width="50" height="50" relative="1" as="geometry">
            <mxPoint x="1305" y="300" as="sourcePoint" />
            <mxPoint x="1090" y="250" as="targetPoint" />
          </mxGeometry>
        </mxCell>
        <mxCell id="o2rqFxTXaJ7XOT23nWny-17" value="&lt;font style=&quot;font-size: 18px&quot;&gt;카드 상태&lt;/font&gt;" style="ellipse;whiteSpace=wrap;html=1;" vertex="1" parent="1">
          <mxGeometry x="1190" y="290" width="120" height="80" as="geometry" />
        </mxCell>
        <mxCell id="o2rqFxTXaJ7XOT23nWny-18" value="&lt;font style=&quot;font-size: 18px&quot;&gt;카드 순서&lt;/font&gt;" style="ellipse;whiteSpace=wrap;html=1;" vertex="1" parent="1">
          <mxGeometry x="1190" y="385" width="120" height="80" as="geometry" />
        </mxCell>
        <mxCell id="o2rqFxTXaJ7XOT23nWny-20" value="" style="endArrow=none;html=1;entryX=0;entryY=0.5;entryDx=0;entryDy=0;exitX=1;exitY=0.5;exitDx=0;exitDy=0;" edge="1" parent="1" source="o2rqFxTXaJ7XOT23nWny-10" target="o2rqFxTXaJ7XOT23nWny-17">
          <mxGeometry width="50" height="50" relative="1" as="geometry">
            <mxPoint x="1000" y="280" as="sourcePoint" />
            <mxPoint x="1050" y="230" as="targetPoint" />
          </mxGeometry>
        </mxCell>
        <mxCell id="o2rqFxTXaJ7XOT23nWny-21" value="" style="endArrow=none;html=1;entryX=0;entryY=0.5;entryDx=0;entryDy=0;exitX=1;exitY=0.5;exitDx=0;exitDy=0;" edge="1" parent="1" source="o2rqFxTXaJ7XOT23nWny-10" target="o2rqFxTXaJ7XOT23nWny-18">
          <mxGeometry width="50" height="50" relative="1" as="geometry">
            <mxPoint x="1320" y="270" as="sourcePoint" />
            <mxPoint x="1050" y="230" as="targetPoint" />
          </mxGeometry>
        </mxCell>
        <mxCell id="o2rqFxTXaJ7XOT23nWny-30" value="&lt;span style=&quot;font-size: 18px&quot;&gt;&lt;u&gt;이력 아이디&lt;/u&gt;&lt;/span&gt;" style="ellipse;whiteSpace=wrap;html=1;" vertex="1" parent="1">
          <mxGeometry x="460" y="350" width="120" height="80" as="geometry" />
        </mxCell>
        <mxCell id="o2rqFxTXaJ7XOT23nWny-31" value="" style="endArrow=none;html=1;exitX=0.5;exitY=0;exitDx=0;exitDy=0;entryX=0.5;entryY=1;entryDx=0;entryDy=0;" edge="1" parent="1" source="o2rqFxTXaJ7XOT23nWny-30" target="o2rqFxTXaJ7XOT23nWny-36">
          <mxGeometry width="50" height="50" relative="1" as="geometry">
            <mxPoint x="905" y="310" as="sourcePoint" />
            <mxPoint x="725" y="280" as="targetPoint" />
          </mxGeometry>
        </mxCell>
        <mxCell id="o2rqFxTXaJ7XOT23nWny-32" value="&lt;font style=&quot;font-size: 18px&quot;&gt;이전 제목&lt;/font&gt;" style="ellipse;whiteSpace=wrap;html=1;" vertex="1" parent="1">
          <mxGeometry x="590" y="350" width="120" height="80" as="geometry" />
        </mxCell>
        <mxCell id="o2rqFxTXaJ7XOT23nWny-33" value="&lt;span style=&quot;font-size: 18px&quot;&gt;이후 제목&lt;/span&gt;" style="ellipse;whiteSpace=wrap;html=1;" vertex="1" parent="1">
          <mxGeometry x="720" y="350" width="120" height="80" as="geometry" />
        </mxCell>
        <mxCell id="o2rqFxTXaJ7XOT23nWny-34" value="" style="endArrow=none;html=1;exitX=0.5;exitY=0;exitDx=0;exitDy=0;entryX=0.5;entryY=1;entryDx=0;entryDy=0;" edge="1" parent="1" source="o2rqFxTXaJ7XOT23nWny-32" target="o2rqFxTXaJ7XOT23nWny-36">
          <mxGeometry width="50" height="50" relative="1" as="geometry">
            <mxPoint x="905" y="310" as="sourcePoint" />
            <mxPoint x="725" y="280" as="targetPoint" />
          </mxGeometry>
        </mxCell>
        <mxCell id="o2rqFxTXaJ7XOT23nWny-35" value="" style="endArrow=none;html=1;exitX=0.5;exitY=0;exitDx=0;exitDy=0;entryX=0.5;entryY=1;entryDx=0;entryDy=0;" edge="1" parent="1" source="o2rqFxTXaJ7XOT23nWny-33" target="o2rqFxTXaJ7XOT23nWny-36">
          <mxGeometry width="50" height="50" relative="1" as="geometry">
            <mxPoint x="905" y="310" as="sourcePoint" />
            <mxPoint x="725" y="260" as="targetPoint" />
          </mxGeometry>
        </mxCell>
        <mxCell id="o2rqFxTXaJ7XOT23nWny-36" value="&lt;font style=&quot;font-size: 18px&quot;&gt;등록/변경&lt;/font&gt;" style="rhombus;whiteSpace=wrap;html=1;" vertex="1" parent="1">
          <mxGeometry x="727.5" y="200" width="105" height="90" as="geometry" />
        </mxCell>
        <mxCell id="o2rqFxTXaJ7XOT23nWny-40" value="" style="endArrow=none;html=1;entryX=0;entryY=0.5;entryDx=0;entryDy=0;exitX=1;exitY=0.5;exitDx=0;exitDy=0;" edge="1" parent="1" source="o2rqFxTXaJ7XOT23nWny-1" target="o2rqFxTXaJ7XOT23nWny-36">
          <mxGeometry width="50" height="50" relative="1" as="geometry">
            <mxPoint x="450" y="270" as="sourcePoint" />
            <mxPoint x="500" y="220" as="targetPoint" />
          </mxGeometry>
        </mxCell>
        <mxCell id="o2rqFxTXaJ7XOT23nWny-41" value="" style="endArrow=none;html=1;entryX=0;entryY=0.5;entryDx=0;entryDy=0;exitX=1;exitY=0.5;exitDx=0;exitDy=0;" edge="1" parent="1" source="o2rqFxTXaJ7XOT23nWny-36" target="o2rqFxTXaJ7XOT23nWny-10">
          <mxGeometry width="50" height="50" relative="1" as="geometry">
            <mxPoint x="750" y="430" as="sourcePoint" />
            <mxPoint x="800" y="380" as="targetPoint" />
          </mxGeometry>
        </mxCell>
        <mxCell id="o2rqFxTXaJ7XOT23nWny-42" value="&lt;span style=&quot;font-size: 18px&quot;&gt;이전 상태&lt;/span&gt;" style="ellipse;whiteSpace=wrap;html=1;" vertex="1" parent="1">
          <mxGeometry x="850" y="350" width="120" height="80" as="geometry" />
        </mxCell>
        <mxCell id="o2rqFxTXaJ7XOT23nWny-43" value="&lt;span style=&quot;font-size: 18px&quot;&gt;이후 상태&lt;/span&gt;" style="ellipse;whiteSpace=wrap;html=1;" vertex="1" parent="1">
          <mxGeometry x="980" y="350" width="120" height="80" as="geometry" />
        </mxCell>
        <mxCell id="o2rqFxTXaJ7XOT23nWny-45" value="" style="endArrow=none;html=1;entryX=0.5;entryY=1;entryDx=0;entryDy=0;exitX=0.5;exitY=0;exitDx=0;exitDy=0;" edge="1" parent="1" source="o2rqFxTXaJ7XOT23nWny-42" target="o2rqFxTXaJ7XOT23nWny-36">
          <mxGeometry width="50" height="50" relative="1" as="geometry">
            <mxPoint x="570" y="430" as="sourcePoint" />
            <mxPoint x="620" y="380" as="targetPoint" />
          </mxGeometry>
        </mxCell>
        <mxCell id="o2rqFxTXaJ7XOT23nWny-46" value="" style="endArrow=none;html=1;entryX=0.452;entryY=1;entryDx=0;entryDy=0;entryPerimeter=0;exitX=0.5;exitY=0;exitDx=0;exitDy=0;" edge="1" parent="1" source="o2rqFxTXaJ7XOT23nWny-43" target="o2rqFxTXaJ7XOT23nWny-36">
          <mxGeometry width="50" height="50" relative="1" as="geometry">
            <mxPoint x="570" y="430" as="sourcePoint" />
            <mxPoint x="620" y="380" as="targetPoint" />
          </mxGeometry>
        </mxCell>
        <mxCell id="o2rqFxTXaJ7XOT23nWny-51" value="1" style="text;html=1;strokeColor=none;fillColor=none;align=center;verticalAlign=middle;whiteSpace=wrap;rounded=0;" vertex="1" parent="1">
          <mxGeometry x="640" y="215" width="40" height="20" as="geometry" />
        </mxCell>
        <mxCell id="o2rqFxTXaJ7XOT23nWny-52" value="n" style="text;html=1;strokeColor=none;fillColor=none;align=center;verticalAlign=middle;whiteSpace=wrap;rounded=0;" vertex="1" parent="1">
          <mxGeometry x="890" y="215" width="40" height="20" as="geometry" />
        </mxCell>
        <mxCell id="o2rqFxTXaJ7XOT23nWny-54" value="" style="endArrow=none;html=1;entryX=0;entryY=0.75;entryDx=0;entryDy=0;exitX=1;exitY=0.5;exitDx=0;exitDy=0;" edge="1" parent="1" target="o2rqFxTXaJ7XOT23nWny-10">
          <mxGeometry width="50" height="50" relative="1" as="geometry">
            <mxPoint x="820" y="255" as="sourcePoint" />
            <mxPoint x="957.5" y="255" as="targetPoint" />
            <Array as="points" />
          </mxGeometry>
        </mxCell>
      </root>
    </mxGraphModel>
  </diagram>
</mxfile>
